<svg width="20" height="20" viewBox="0 0 20 20" fill="none" xmlns="http://www.w3.org/2000/svg">
<path id="Vector" d="M19.2608 8.65246C19.189 8.80473 19.0672 8.9349 18.911 9.02649C18.7548 9.11808 18.5712 9.16699 18.3833 9.16702H10.7836V19.1667C10.7836 19.3877 10.6836 19.5997 10.5054 19.7559C10.3272 19.9122 10.0856 20 9.83368 20C9.58173 20 9.34011 19.9122 9.16195 19.7559C8.9838 19.5997 8.88372 19.3877 8.88372 19.1667V9.16702H1.28405C1.09606 9.16715 0.912248 9.11835 0.75589 9.02679C0.599533 8.93524 0.477659 8.80505 0.405697 8.6527C0.333735 8.50035 0.314922 8.3327 0.351638 8.17097C0.388354 8.00923 0.47895 7.86069 0.611954 7.74415L9.16158 0.244397C9.24981 0.16692 9.35458 0.105456 9.4699 0.0635204C9.58522 0.0215848 9.70884 0 9.83368 0C9.95852 0 10.0821 0.0215848 10.1975 0.0635204C10.3128 0.105456 10.4175 0.16692 10.5058 0.244397L19.0554 7.74415C19.1882 7.86075 19.2786 8.00929 19.3152 8.17097C19.3517 8.33265 19.3328 8.50021 19.2608 8.65246Z" fill="#8D6CCF"/>
</svg>
